<svg width="314" height="88" viewBox="0 0 314 88" fill="none" xmlns="http://www.w3.org/2000/svg">
<path d="M8.42019 51.6707C7.32041 51.5569 6.22455 51.3284 5.13732 50.986C4.99195 56.259 4.91927 65.5064 4.91927 78.7282C4.92876 79.3788 4.8721 80.0268 4.75255 80.6346C4.633 81.2424 4.45293 81.7981 4.22272 82.2697C4.0006 82.7394 3.72946 83.111 3.42753 83.3594C3.1256 83.6078 2.79987 83.7273 2.47226 83.71C2.14087 83.7303 1.81108 83.6123 1.505 83.3639C1.19892 83.1155 0.923628 82.7424 0.697576 82.2697C0.46736 81.7981 0.287287 81.2424 0.167741 80.6346C0.0481956 80.0268 -0.00846501 79.3788 0.00102161 78.7282V63.3106C0.00102161 58.1714 0.162542 50.9348 0.485579 41.6008C0.844958 31.5035 1.04686 24.2709 1.09127 19.9029V12.6664C1.04625 10.1316 1.15605 7.5953 1.41835 5.11103C1.83023 2.04169 2.70848 0.707705 4.05312 1.13269C4.84461 0.70737 5.6565 0.44232 6.4759 0.341747C7.53587 0.164669 8.83206 0.0820312 10.3766 0.0820312C13.7485 0.143477 17.0073 2.46067 19.6074 6.64571C22.7651 11.4701 24.3439 17.2743 24.3439 24.0584C24.3439 32.7155 22.6581 39.6176 19.2864 44.7647C16.1798 49.4347 12.342 51.8738 8.42019 51.6707ZM9.76483 10.0456C8.97137 10.0456 8.26876 10.0456 7.65095 10.1519C7.03314 10.2581 6.50618 10.3289 6.07614 10.4588L6.02163 20.1036L5.46439 40.9752L8.42624 41.6599C11.1461 41.8338 13.8203 40.2664 16.0398 37.1975C17.1134 35.7171 17.9819 33.7409 18.5675 31.4459C19.1531 29.1508 19.4376 26.6084 19.3954 24.0465C19.3954 20.1115 18.3193 16.7352 16.167 13.9177C14.2815 11.4009 12.0502 10.0514 9.76483 10.0456Z" fill="white"/>
<path d="M58.9355 8.00367C58.9355 9.57769 58.5135 11.8482 57.6696 14.8153C56.4582 19.0415 55.8525 21.2845 55.7859 21.5206C52.0911 38.646 48.8608 53.3789 46.0948 65.7192C43.3126 78.1934 38.4166 84.4344 31.4067 84.4422C31.0494 84.4723 30.6928 84.3573 30.3595 84.1046C30.0263 83.8518 29.7236 83.4668 29.4707 82.974C29.2178 82.4811 29.0203 81.8912 28.8906 81.2416C28.7609 80.5921 28.7019 79.8971 28.7174 79.2007C28.6627 78.0674 28.8323 76.9363 29.1915 76.0387C29.5507 75.1412 30.0723 74.5451 30.6495 74.3724L35.0105 73.0148C36.964 71.8692 38.6071 69.2691 39.5835 65.7782L42.0063 57.857C38.9052 50.0655 36.8256 43.7065 35.7677 38.7798C34.6236 33.8186 33.2447 29.076 31.6489 24.6136C29.319 17.8374 27.831 13.2609 27.185 10.8841C26.9342 10.0182 26.7969 9.04503 26.7852 8.0509C26.7829 7.34911 26.8555 6.65406 26.9984 6.00985C27.1412 5.36564 27.3512 4.78633 27.615 4.30866C27.8654 3.79901 28.1663 3.39389 28.4995 3.11789C28.8327 2.8419 29.1912 2.70079 29.5532 2.70315C29.9959 2.73426 30.4281 2.97518 30.8122 3.4051C31.1964 3.83501 31.521 4.44094 31.758 5.17043C32.2425 6.59886 32.9694 8.77101 33.9082 11.6633C35.7899 17.1724 37.0376 20.9303 37.6514 22.9372C38.8538 26.7509 39.9145 30.7277 40.8252 34.8369C41.8284 39.1041 43.0957 43.1162 44.5987 46.7837C45.9635 40.2751 48.0168 30.5201 50.7586 17.5186C51.437 15.0789 52.4061 11.3603 53.6659 6.36275C54.2171 4.00171 55.053 2.8212 56.1675 2.8212C56.5276 2.81066 56.8852 2.93872 57.2199 3.19801C57.5546 3.45731 57.8597 3.84274 58.1178 4.33226C58.3775 4.79987 58.5844 5.36788 58.7252 6.00002C58.8659 6.63216 58.9376 7.31455 58.9355 8.00367Z" fill="white"/>
<path d="M93.5811 78.044C93.5842 78.7145 93.5126 79.3782 93.3715 79.9896C93.2303 80.601 93.0229 81.1455 92.7634 81.5856C92.2402 82.5304 91.5504 83.0462 90.8373 83.0258C89.6016 83.0258 88.7416 81.6131 88.257 78.7877C87.4171 73.8532 85.5697 67.3328 82.7149 59.2266C79.2019 49.3574 76.3228 44.4229 74.0777 44.4229C73.363 44.4229 72.3575 44.4229 71.0492 44.3639C71.0492 47.7874 71.0492 51.1518 71.0492 54.4337C71.0492 58.9118 71.0492 62.2487 71.0492 64.4444C71.0492 72.7632 70.9967 77.4852 70.8917 78.6107C70.601 81.7587 69.7207 83.3327 68.2509 83.3327C66.458 83.3327 65.5616 81.6367 65.5616 78.2447C65.5616 75.6633 65.6161 71.7282 65.7251 66.4395C65.8342 61.1862 65.8826 57.2433 65.8826 54.6343C65.8826 49.6683 65.7938 42.2389 65.6161 32.3462C65.4384 22.4534 65.3496 15.0437 65.3496 10.117C65.3496 4.59219 66.2703 1.85338 68.1176 1.85338C68.4703 1.83045 68.8216 1.94872 69.1498 2.2009C69.4781 2.45307 69.7764 2.83378 70.0261 3.3195C70.2759 3.80522 70.4719 4.38562 70.602 5.02484C70.7322 5.66405 70.7937 6.3485 70.7827 7.03586C70.7827 9.8691 70.8816 18.782 71.0795 33.7746C75.6989 33.7746 79.5814 27.7815 82.727 15.7953C84.8429 7.68121 86.985 3.62809 89.1534 3.63596C89.9093 3.63309 90.6582 3.91781 91.3581 4.47414C92.2727 5.20606 92.7331 6.19769 92.7331 7.46084C92.7331 10.1878 92.2546 11.5454 91.3036 11.5454C89.4018 11.5454 87.5847 15.689 85.8524 23.9763C84.2372 31.5552 81.8871 36.2773 78.8021 38.1425C81.3702 39.9999 84.4815 45.9024 88.1358 55.8503C91.7902 65.7981 93.6053 73.1961 93.5811 78.044Z" fill="white"/>
<path d="M106.979 51.6707C105.879 51.5569 104.783 51.3284 103.696 50.986C103.551 56.259 103.48 65.5064 103.484 78.7282C103.493 79.3797 103.435 80.0281 103.314 80.6359C103.194 81.2438 103.013 81.7991 102.781 82.2697C102.559 82.7394 102.288 83.111 101.986 83.3594C101.684 83.6078 101.358 83.7273 101.031 83.71C100.699 83.7303 100.37 83.6123 100.064 83.3639C99.7575 83.1155 99.4822 82.7424 99.2562 82.2697C99.0259 81.7981 98.8459 81.2424 98.7263 80.6346C98.6068 80.0268 98.5501 79.3788 98.5596 78.7282V63.3106C98.5596 58.1714 98.7211 50.9348 99.0442 41.6008C99.3995 31.5035 99.6014 24.2709 99.6499 19.9029V12.6664C99.6048 10.1316 99.7146 7.5953 99.9769 5.11103C100.389 2.04169 101.267 0.707705 102.612 1.13269C103.403 0.70737 104.215 0.44232 105.034 0.341747C106.094 0.164669 107.391 0.0820312 108.935 0.0820312C112.307 0.141562 115.566 2.45898 118.166 6.64571C121.32 11.4701 122.898 17.2743 122.902 24.0584C122.902 32.7155 121.217 39.6176 117.845 44.7647C114.739 49.4364 110.901 51.8757 106.979 51.6707ZM108.323 10.0456C107.536 10.0456 106.827 10.0456 106.21 10.1519C105.592 10.2581 105.071 10.3289 104.635 10.4588L104.586 20.1036L104.017 40.9752L106.979 41.6599C109.699 41.8338 112.373 40.2664 114.592 37.1975C115.672 35.7238 116.546 33.7505 117.137 31.455C117.728 29.1595 118.017 26.6137 117.978 24.0465C117.978 20.1115 116.902 16.7352 114.75 13.9177C112.857 11.3918 110.617 10.0419 108.323 10.0456Z" fill="white"/>
<path d="M200.267 40.6574C200.267 53.6353 195.845 62.3593 187.002 66.8295C186.966 68.9191 186.905 70.8433 186.814 72.5904C189.128 72.4488 190.963 72.378 192.332 72.378C194.105 72.378 194.991 73.83 194.991 76.7341C195.007 78.1557 194.732 79.5311 194.228 80.5589C193.987 81.0668 193.693 81.4693 193.367 81.7399C193.04 82.0105 192.687 82.1431 192.332 82.1291C191.648 82.1291 190.636 82.129 189.304 82.2589C187.971 82.3887 186.942 82.4006 186.275 82.4006C184.897 82.4975 183.525 82.8213 182.175 83.3686C180.822 83.9094 179.448 84.2332 178.068 84.3366C177.71 84.3545 177.355 84.2261 177.024 83.9597C176.693 83.6933 176.395 83.2949 176.148 82.7901C175.896 82.2892 175.698 81.6946 175.566 81.0416C175.433 80.3886 175.37 79.6906 175.379 78.9889C175.379 76.0533 176.275 74.5855 178.068 74.5855C178.64 74.5607 179.208 74.4183 179.764 74.1606C180.642 73.7828 181.188 73.5467 181.406 73.4758C181.515 71.7995 181.593 69.9343 181.648 67.9746L181.381 68.0337C178.453 68.1625 175.561 66.7471 173.011 63.9373C170.018 60.6239 168.522 56.2048 168.522 50.68C168.406 43.1131 169.792 35.7506 172.393 30.1272C174.929 24.8399 178.25 21.2285 181.89 19.7977C181.945 18.1922 182.005 16.4922 182.078 14.7096C181.557 14.7096 180.709 14.7805 179.522 14.9222C178.432 15.0284 177.578 15.0756 176.966 15.0756C176.613 15.0962 176.261 14.9794 175.931 14.7321C175.602 14.4848 175.301 14.112 175.046 13.6354C174.79 13.1523 174.589 12.5692 174.456 11.9243C174.324 11.2795 174.262 10.5873 174.277 9.89313C174.277 7.02054 175.137 5.21828 176.857 4.48636C178.312 4.14963 179.778 4.0273 181.242 4.1204C185.162 3.96891 189.083 4.36342 192.974 5.30092C194.565 5.79674 195.363 7.66589 195.367 10.9084C195.381 11.586 195.317 12.2613 195.18 12.8844C195.043 13.5076 194.835 14.0627 194.573 14.509C194.022 15.4123 193.319 15.8873 192.599 15.843C191.428 15.843 189.706 15.599 187.432 15.111C187.396 16.2916 187.347 17.3776 187.299 18.4637H187.644C190.807 18.4968 193.849 20.8338 196.172 25.0156C198.902 29.5802 200.267 34.7942 200.267 40.6574ZM181.624 58.6485C181.426 49.2752 181.327 44.7814 181.327 45.167C181.327 40.382 181.399 35.2113 181.545 29.655C176.057 33.11 173.313 40.1183 173.313 50.68C173.313 52.9073 174.398 54.8748 176.566 56.5826C178.081 57.867 179.706 58.58 181.357 58.6839L181.624 58.6485ZM195.476 40.6574C195.476 37.4149 194.571 34.4282 192.762 31.6973C191.316 29.3355 189.506 27.9885 187.62 27.8724H187.014C186.885 33.5232 186.822 39.0637 186.827 44.4941C186.827 45.5684 186.881 49.7356 186.99 56.9722C189.837 55.0834 191.787 53.348 192.823 51.7779C193.697 50.4867 194.396 48.7982 194.858 46.8599C195.32 44.9216 195.533 42.7922 195.476 40.6574Z" fill="white"/>
<path d="M237.845 16.2318C236.52 16.2318 234.475 16.0233 231.709 15.6062C229.02 15.2205 226.976 15.0435 225.579 15.0749H223.665C223.718 19.9072 223.96 27.738 224.392 38.5673C224.796 48.6568 224.998 56.5033 224.998 62.1068C224.998 63.2873 225.058 65.1761 225.186 67.667C225.313 70.1579 225.373 72.0113 225.373 73.2745C225.396 75.3772 225.189 77.4653 224.768 79.4014C224.263 81.7152 223.482 82.8721 222.424 82.8721C221.706 82.8688 221.014 82.3424 220.485 81.3965C220.207 80.9312 219.985 80.3506 219.836 79.6971C219.687 79.0436 219.615 78.3335 219.625 77.6188C219.642 76.8267 219.686 76.0378 219.759 75.2578C219.836 74.4788 219.882 73.6895 219.898 72.8967C219.898 71.1889 219.839 68.6193 219.722 65.1879C219.601 61.7644 219.547 59.1791 219.547 57.4319C219.547 52.4265 219.345 45.3985 218.941 36.3479C218.509 26.5574 218.266 19.5333 218.214 15.2756H215.791C212.683 15.4389 209.576 14.8761 206.536 13.5993C205.083 12.8674 204.356 11.1399 204.356 8.4168C204.347 7.03313 204.597 5.69048 205.058 4.63915C205.306 4.04867 205.625 3.58664 205.986 3.29418C206.347 3.00172 206.74 2.88789 207.13 2.96281C207.735 3.03364 209.189 3.34056 211.43 3.90721C212.877 4.27494 214.333 4.48384 215.791 4.5329C216.863 4.5329 218.499 4.5329 220.685 4.40305C222.872 4.27319 224.507 4.27319 225.579 4.27319C226.96 4.27319 229.014 4.46206 231.727 4.85163C234.441 5.2412 236.494 5.41829 237.875 5.41829C238.235 5.40272 238.593 5.53201 238.927 5.79808C239.26 6.06416 239.562 6.46131 239.813 6.96477C240.068 7.47526 240.267 8.07966 240.4 8.74254C240.534 9.40541 240.597 10.1134 240.588 10.8251C240.596 11.5276 240.532 12.2262 240.399 12.8792C240.266 13.5322 240.066 14.1264 239.813 14.6263C239.561 15.1479 239.256 15.5604 238.916 15.8369C238.577 16.1135 238.212 16.2481 237.845 16.2318Z" fill="white"/>
<path d="M245.835 87.3224C245.178 87.3177 244.537 86.9343 243.992 86.2203C243.447 85.5064 243.022 84.494 242.772 83.3107C242.522 82.1274 242.457 80.8262 242.586 79.5712C242.715 78.3162 243.031 77.1636 243.495 76.2586C243.96 75.3537 244.551 74.7369 245.195 74.486C245.839 74.2352 246.507 74.3616 247.114 74.8492C247.721 75.3368 248.24 76.1638 248.607 77.226C248.973 78.2882 249.17 79.5379 249.172 80.8177C249.181 81.6786 249.098 82.5336 248.928 83.3284C248.758 84.1231 248.505 84.8401 248.185 85.4336C247.879 86.0431 247.514 86.525 247.109 86.8497C246.705 87.1745 246.272 87.3353 245.835 87.3224Z" fill="white"/>
<path d="M263.492 51.6707C262.393 51.5563 261.297 51.3278 260.209 50.986C260.072 56.259 260.001 65.5063 259.997 78.7281C260.006 79.3797 259.949 80.0281 259.828 80.6359C259.707 81.2438 259.526 81.7991 259.295 82.2697C259.074 82.7385 258.804 83.1095 258.503 83.358C258.202 83.6064 257.877 83.7264 257.55 83.7099C257.219 83.731 256.889 83.6134 256.583 83.365C256.277 83.1165 256.002 82.743 255.776 82.2697C255.544 81.7991 255.363 81.2438 255.243 80.6359C255.122 80.0281 255.064 79.3797 255.073 78.7281V63.3106C255.073 58.1714 255.235 50.9348 255.558 41.6008C255.917 31.5035 256.119 24.2709 256.163 19.9029V12.6664C256.12 10.1322 256.228 7.59683 256.484 5.11103C256.896 2.04169 257.775 0.707705 259.119 1.13269C259.911 0.708349 260.723 0.443316 261.542 0.341747C262.596 0.164669 263.898 0.0820312 265.437 0.0820312C268.81 0.143648 272.071 2.46066 274.673 6.64571C277.827 11.4701 279.404 17.2743 279.404 24.0584C279.404 32.7155 277.718 39.6176 274.346 44.7647C271.244 49.4312 267.41 51.8703 263.492 51.6707ZM264.837 10.0456C264.029 10.0456 263.327 10.081 262.729 10.1519C262.123 10.2227 261.584 10.3289 261.154 10.4588L261.07 20.1036L260.506 40.9752L263.462 41.6599C266.182 41.8372 268.857 40.2696 271.076 37.1975C272.156 35.7244 273.031 33.7515 273.623 31.4561C274.215 29.1607 274.505 26.6146 274.467 24.0465C274.467 20.1115 273.391 16.7352 271.239 13.9177C269.349 11.3997 267.114 10.0503 264.825 10.0456H264.837Z" fill="white"/>
<path d="M314.001 8.00368C314.001 9.57771 313.579 11.8483 312.735 14.8153C311.524 19.0416 310.918 21.2845 310.851 21.5206C307.14 38.6539 303.912 53.371 301.166 65.672C298.388 78.1855 293.502 84.4423 286.508 84.4423C286.152 84.4688 285.796 84.3514 285.463 84.0973C285.131 83.8433 284.829 83.4582 284.577 82.9661C284.324 82.474 284.126 81.8855 283.996 81.2375C283.866 80.5896 283.805 79.8962 283.819 79.2007C283.766 78.0663 283.937 76.9351 284.297 76.0379C284.657 75.1407 285.18 74.5451 285.757 74.3724L290.112 73.0148C292.067 71.8726 293.71 69.2716 294.685 65.7783L297.108 57.857C293.999 50.0656 291.917 43.7065 290.863 38.7798C289.722 33.8186 288.345 29.0759 286.751 24.6136C284.421 17.8374 282.933 13.2609 282.287 10.8842C282.031 10.0216 281.891 9.04694 281.881 8.05091C281.88 7.34836 281.953 6.653 282.097 6.00884C282.241 5.36468 282.452 4.78575 282.717 4.30867C282.966 3.79881 283.266 3.39342 283.598 3.11735C283.93 2.84128 284.288 2.70034 284.649 2.70317C285.093 2.73237 285.526 2.97241 285.911 3.40241C286.297 3.83241 286.622 4.43934 286.86 5.17045C287.344 6.59887 288.071 8.77103 289.01 11.6633C290.892 17.1724 292.137 20.9304 292.747 22.9372C293.952 26.7483 295.013 30.7254 295.921 34.8369C296.917 39.0957 298.172 43.1065 299.658 46.7837C301.023 40.2751 303.076 30.5201 305.818 17.5187C306.504 15.0789 307.474 11.3603 308.725 6.36276C309.283 4.00173 310.118 2.82121 311.227 2.82121C311.945 2.79412 312.639 3.32016 313.159 4.28506C313.426 4.75425 313.639 5.3281 313.784 5.96896C313.929 6.60982 314.003 7.30321 314.001 8.00368Z" fill="white"/>
<path d="M160.886 3.8485L160.511 0H125.144L124.49 4.56862L128.609 81.9988L128.821 86.4021H168.294L167.949 82.4592L160.886 3.8485Z" fill="#080707"/>
<path d="M164.084 67.7023L164.035 67.171L163.902 65.7072V65.6718L158.542 4.99316H127.209L131.612 82.5296H145.78L144.005 57.4082H149.341L149.753 62.8386L149.868 64.3969L151.225 82.4706H165.368L164.084 67.7023ZM148.221 45.8863L147.845 40.7747H142.872L143.151 45.8863H139.868L138.838 30.7284H141.655L141.376 27.0571H135.84L135.186 17.1879H141.188L141.843 26.148H146.688L146.125 17.1879H152.345L153.193 27.0571H147.379L147.657 30.7284H150.383L151.594 45.8863H148.221Z" fill="#A39186"/>
<path d="M150.753 62.7207C149.723 62.7207 148.875 63.0867 148.875 63.6297C148.875 64.1727 149.723 64.5387 150.753 64.3616L163.321 67.1004C164.357 67.2893 165.198 67.1004 165.295 66.7345C165.392 66.3685 164.635 65.8255 163.606 65.6366L150.753 62.7207Z" fill="#080707"/>
<path d="M164.765 68.1984L162.136 66.1915C161.197 65.4596 161.197 65.0936 162.233 65.2707L164.952 65.8255L164.765 68.1984Z" fill="#080707"/>
<path d="M133.872 81.3616C132.842 81.3616 132.091 81.7276 132.188 82.0936C132.285 82.4595 133.218 82.8255 134.247 82.8255H135.847C136.876 82.8255 137.815 82.4595 137.906 81.9165C137.997 81.3734 137.252 81.1846 136.222 81.1846L133.872 81.3616Z" fill="#E3DCD0"/>
<path d="M141.932 81.3616C140.903 81.3616 140.152 81.7276 140.249 82.0936C140.346 82.4595 141.181 82.8255 142.217 82.8255H142.871C143.907 82.8255 144.749 82.4595 144.84 81.9165C144.931 81.3734 144.186 81.1846 143.156 81.1846L141.945 81.3616H141.932Z" fill="#E3DCD0"/>
<path d="M153.382 81.3611C152.346 81.3611 151.692 81.7271 151.88 82.093C152.592 82.6691 153.363 82.9195 154.133 82.8249H162.479C163.509 82.8249 164.545 82.459 164.733 81.9159C164.92 81.3729 164.26 80.9951 163.23 81.184L153.382 81.3611Z" fill="#E3DCD0"/>
<path d="M136.028 15.3587C134.993 15.3587 134.242 15.7247 134.338 16.0906C134.435 16.4566 135.368 16.8225 136.404 16.8225H138.112C139.148 16.8225 140.087 16.4566 140.177 15.9136C140.268 15.3705 139.523 15.1816 138.488 15.1816L136.065 15.3587H136.028Z" fill="#E3DCD0"/>
<path d="M147.003 15.3587C145.967 15.3587 145.216 15.7247 145.313 16.0906C145.41 16.4566 146.343 16.8225 147.379 16.8225H149.062C150.098 16.8225 151.037 16.4566 151.128 15.9136C151.219 15.3705 150.474 15.1816 149.438 15.1816L147.015 15.3587H147.003Z" fill="#E3DCD0"/>
<path d="M139.965 29.0762C139.124 29.0762 138.463 29.4421 138.56 29.9852C138.657 30.5282 139.214 30.7171 139.965 30.7171C140.717 30.7171 141.371 30.3511 141.371 29.8081C141.371 29.265 140.807 29.0762 139.965 29.0762Z" fill="#E3DCD0"/>
<path d="M143.908 24.6847C142.872 24.6847 142.121 25.0506 142.121 25.6055C142.218 25.9715 142.969 26.3374 143.908 26.3374C144.847 26.3374 145.592 25.9714 145.689 25.4166C145.689 24.8736 144.938 24.5076 143.908 24.6847Z" fill="#E3DCD0"/>
<path d="M145.315 55.225C144.279 55.225 143.534 55.591 143.625 55.9569C143.716 56.3229 144.564 56.6889 145.593 56.6889H146.629C147.659 56.6889 148.501 56.3229 148.597 55.768C148.694 55.2132 147.937 55.0361 146.908 55.0361L145.315 55.225Z" fill="#E3DCD0"/>
<path d="M152.723 61.2569C151.693 61.0681 150.942 61.2569 151.033 61.6229C151.124 61.9889 151.972 62.5319 153.007 62.8978L154.879 63.4527C155.915 63.6298 156.854 63.6298 156.944 63.0867C157.035 62.5437 156.381 62.1659 155.351 61.8L152.723 61.2569Z" fill="#E3DCD0"/>
<path d="M149.348 29.0762C148.596 29.0762 148.033 29.4421 148.033 29.9852C148.033 30.5282 148.687 30.7171 149.348 30.7171C150.008 30.7171 150.559 30.3511 150.662 29.8081C150.765 29.265 150.099 29.0762 149.348 29.0762Z" fill="#E3DCD0"/>
</svg>
